<svg width="643.6025878906249px" height="198.58485107421873px" xmlns="http://www.w3.org/2000/svg" viewBox="-71.80129394531247 -24.292425537109366 643.6025878906249 198.58485107421873" style="background: rgba(0, 0, 0, 0);" preserveAspectRatio="xMidYMid"><defs><filter id="editing-golden" x="-100%" y="-100%" width="300%" height="300%"><feFlood flood-color="#806527" result="flood"></feFlood><feFlood flood-color="#fff694" result="flood-light"></feFlood><feComposite operator="in" in="flood" in2="SourceAlpha" result="flood-comp"></feComposite><feGaussianBlur in="flood-comp" stdDeviation="3" result="blur"></feGaussianBlur><feOffset in="blur" dy="3" result="offset-blur"></feOffset><feComponentTransfer in="offset-blur" result="comp-blur"><feFuncA type="linear" slope="0.7" intercept="-0.1"></feFuncA></feComponentTransfer><feSpecularLighting surfaceScale="200" specularConstant="20" specularExponent="1" lighting-color="#fff" in="blur" result="specular"><fePointLight x="-250" y="-250" z="3500"></fePointLight></feSpecularLighting><feComponentTransfer in="specular" result="inspecular"><feFuncA type="linear" slope="-1" intercept="1"></feFuncA></feComponentTransfer><feComposite operator="in" in="flood-light" in2="inspecular" result="inspecular2"></feComposite><feComposite operator="in" in="inspecular2" in2="SourceAlpha" result="light"></feComposite><feMerge><feMergeNode in="comp-blur"></feMergeNode><feMergeNode in="SourceGraphic"></feMergeNode><feMergeNode in="light"></feMergeNode></feMerge></filter></defs><g filter="url(#editing-golden)"><g transform="translate(22.714385390281677, 112.63999938964844)"><path d="M80.85-19.84L80.85-19.84L80.85-19.84Q80.85-16.06 79.17-12.71L79.17-12.71L79.17-12.71Q75.60-5.14 65.52-0.10L65.52-0.10L65.52-0.10Q55.44 4.93 44.52 4.93L44.52 4.93L44.52 4.93Q27.93 4.93 21.95-6.40L21.95-6.40L21.95-6.40Q11.13 2.63 6.51 2.63L6.51 2.63L6.51 2.63Q5.67 2.63 5.04 2.31L5.04 2.31L5.04 2.31Q1.89 0.63 1.89-4.93L1.89-4.93L1.89-4.93Q1.89-10.50 6.51-18.59L6.51-18.59L6.51-18.59Q11.13-26.67 14.59-28.14L14.59-28.14L14.59-28.14Q16.17-28.66 17.01-28.66L17.01-28.66L17.01-28.66Q20.05-28.66 21.63-23.63L21.63-23.63L24.78-13.54L24.78-13.54Q27.82-16.80 33.07-23.94L33.07-23.94L42.42-36.54L42.42-36.54Q59.64-58.91 65.00-61.00L65.00-61.00L65.00-61.00Q66.88-61.74 68.88-61.74L68.88-61.74L68.88-61.74Q70.88-61.74 72.19-60.90L72.19-60.90L72.19-60.90Q73.50-60.06 73.50-58.80L73.50-58.80L73.50-58.80Q73.50-56.91 70.45-56.59L70.45-56.59L70.45-56.59Q67.30-54.81 58.43-46.15L58.43-46.15L58.43-46.15Q49.56-37.48 47.88-35.17L47.88-35.17L47.88-35.17Q36.12-18.79 26.14-9.97L26.14-9.97L26.14-9.97Q32.55 2.73 45.36 2.73L45.36 2.73L45.36 2.73Q53.13 2.73 60.79-2.15L60.79-2.15L60.79-2.15Q68.46-7.04 72.24-14.17L72.24-14.17L72.24-14.17Q73.92-17.22 73.92-21L73.92-21L73.92-21Q73.92-24.78 70.93-28.19L70.93-28.19L70.93-28.19Q67.94-31.61 63.42-33.18L63.42-33.18L63.42-33.18Q61.32-33.49 56.70-34.07L56.70-34.07L56.70-34.07Q52.08-34.65 52.08-36.02L52.08-36.02L52.08-36.02Q52.08-36.54 52.50-36.96L52.50-36.96L52.50-36.96Q53.76-38.43 55.75-38.43L55.75-38.43L55.75-38.43Q56.91-38.43 58.01-38.01L58.01-38.01L58.01-38.01Q59.11-37.59 59.74-37.38L59.74-37.38L59.74-37.38Q60.38-37.17 61.21-36.85L61.21-36.85L61.21-36.85Q63.52-36.64 65.20-36.64L65.20-36.64L65.20-36.64Q72.13-36.64 77.80-38.85L77.80-38.85L77.80-38.85Q85.05-41.68 87.05-47.35L87.05-47.35L87.05-47.35Q88.30-51.03 88.30-53.97L88.30-53.97L88.30-53.97Q88.30-61.21 81.27-64.78L81.27-64.78L81.27-64.78Q75.18-67.94 64.58-67.94L64.58-67.94L64.58-67.94Q47.88-67.94 34.65-61.63L34.65-61.63L34.65-61.63Q27.93-58.48 21.89-52.29L21.89-52.29L21.89-52.29Q15.85-46.09 15.85-41.68L15.85-41.68L15.85-41.68Q15.85-38.64 17.43-36.64L17.43-36.64L17.43-36.64Q18.06-35.80 19.63-34.55L19.63-34.55L19.63-34.55Q20.16-34.23 19.00-34.23L19.00-34.23L19.00-34.23Q12.49-35.70 12.49-42.95L12.49-42.95L12.49-42.95Q12.49-50.19 19.84-56.59L19.84-56.59L19.84-56.59Q25.30-61.32 32.13-64.26L32.13-64.26L32.13-64.26Q46.30-70.35 64.36-70.35L64.36-70.35L64.36-70.35Q77.28-70.35 84.94-66.57L84.94-66.57L84.94-66.57Q93.87-62.37 93.87-53.86L93.87-53.86L93.87-53.86Q93.87-50.50 92.50-47.04L92.50-47.04L92.50-47.04Q90.30-40.74 81.06-37.48L81.06-37.48L81.06-37.48Q74.13-35.07 66.15-34.96L66.15-34.96L66.15-34.96Q72.34-34.65 76.60-30.40L76.60-30.40L76.60-30.40Q80.85-26.14 80.85-19.84ZM13.75-23.73L13.75-23.73L13.75-23.73Q13.65-23.73 13.23-23.52L13.23-23.52L13.23-23.52Q5.46-12.29 5.46-5.46L5.46-5.46L5.46-5.46Q5.46-2.63 6.83-0.32L6.83-0.32L6.83-0.32Q7.14 0.21 7.88 0.21L7.88 0.21L7.88 0.21Q11.23 0.21 20.79-9.34L20.79-9.34L20.47-9.76L20.47-9.76Q16.27-23.73 13.75-23.73ZM90.09-5.25L90.09-5.25L90.09-5.25Q90.09-2.10 93.55-2.10L93.55-2.10L93.55-2.10Q97.02-2.10 102.48-5.77L102.48-5.77L102.48-5.77Q107.94-9.45 113.08-15.75L113.08-15.75L113.08-15.75Q114.34-17.43 115.08-17.43L115.08-17.43L115.08-17.43Q115.81-17.43 115.81-16.80L115.81-16.80L115.81-16.80Q115.81-16.17 111.51-11.34L111.51-11.34L111.51-11.34Q101.01 0.21 93.97 0.21L93.97 0.21L93.97 0.21Q90.51 0.21 88.09-1.42L88.09-1.42L88.09-1.42Q85.68-3.04 85.68-6.46L85.68-6.46L85.68-6.46Q85.68-9.87 87.46-14.38L87.46-14.38L87.46-14.38Q90.51-21.52 97.23-32.34L97.23-32.34L97.23-32.34Q109.51-52.29 114.66-52.29L114.66-52.29L114.66-52.29Q115.71-52.29 116.81-51.50L116.81-51.50L116.81-51.50Q117.91-50.71 118.02-49.77L118.02-49.77L118.02-49.77Q115.60-46.52 108.73-37.27L108.73-37.27L108.73-37.27Q101.85-28.04 99.22-23.99L99.22-23.99L99.22-23.99Q96.60-19.95 95.29-17.95L95.29-17.95L95.29-17.95Q93.97-15.96 93.34-14.86L93.34-14.86L93.34-14.86Q92.71-13.75 91.87-11.97L91.87-11.97L91.87-11.97Q90.09-8.40 90.09-5.25ZM138.91-22.26L138.91-22.26L138.91-22.26Q138.91-18.59 131.88-9.97L131.88-9.97L131.88-9.97Q123.58 0.21 117.70 0.21L117.70 0.21L116.02 0.21L116.02 0.21Q113.29 0.21 111.72-2.63L111.72-2.63L111.72-2.63Q110.46-4.62 110.46-7.04L110.46-7.04L110.46-7.04Q110.46-13.33 119.65-24.73L119.65-24.73L119.65-24.73Q128.83-36.12 134.50-36.12L134.50-36.12L134.50-36.12Q139.86-36.12 139.86-30.45L139.86-30.45L139.86-30.45Q139.86-28.98 139.33-26.67L139.33-26.67L139.33-26.67Q139.44-26.36 141.33-26.36L141.33-26.36L141.33-26.36Q143.22-26.36 147.10-28.35L147.10-28.35L147.10-28.35Q147-26.56 138.81-23.20L138.81-23.20L138.81-23.20Q138.91-22.79 138.91-22.26ZM132.09-27.72L132.09-27.72L132.09-27.72Q128.52-27.72 121.96-19.32L121.96-19.32L121.96-19.32Q115.39-10.92 115.39-6.93L115.39-6.93L115.39-6.93Q115.39-2.94 117.91-2.94L117.91-2.94L117.91-2.94Q122.43-2.94 129.36-11.13L129.36-11.13L129.36-11.13Q136.29-19.32 136.29-22.89L136.29-22.89L136.29-22.89Q134.61-23.84 132.09-27.72ZM168.42-22.26L168.42-22.26L168.42-22.26Q168.42-18.59 161.38-9.97L161.38-9.97L161.38-9.97Q153.09 0.21 147.21 0.21L147.21 0.21L145.53 0.21L145.53 0.21Q142.80 0.21 141.22-2.63L141.22-2.63L141.22-2.63Q139.96-4.62 139.96-7.04L139.96-7.04L139.96-7.04Q139.96-13.33 149.15-24.73L149.15-24.73L149.15-24.73Q158.34-36.12 164.01-36.12L164.01-36.12L164.01-36.12Q169.36-36.12 169.36-30.45L169.36-30.45L169.36-30.45Q169.36-28.98 168.84-26.67L168.84-26.67L168.84-26.67Q168.94-26.36 170.83-26.36L170.83-26.36L170.83-26.36Q172.72-26.36 176.61-28.35L176.61-28.35L176.61-28.35Q176.50-26.56 168.31-23.20L168.31-23.20L168.31-23.20Q168.42-22.79 168.42-22.26ZM161.59-27.72L161.59-27.72L161.59-27.72Q158.02-27.72 151.46-19.32L151.46-19.32L151.46-19.32Q144.90-10.92 144.90-6.93L144.90-6.93L144.90-6.93Q144.90-2.94 147.42-2.94L147.42-2.94L147.42-2.94Q151.93-2.94 158.86-11.13L158.86-11.13L158.86-11.13Q165.79-19.32 165.79-22.89L165.79-22.89L165.79-22.89Q164.11-23.84 161.59-27.72ZM204.96-31.81L204.96-31.81L204.96-31.81Q216.72-50.92 221.34-50.92L221.34-50.92L221.34-50.92Q222.07-50.92 223.39-50.45L223.39-50.45L223.39-50.45Q224.70-49.98 224.70-49.03L224.70-49.03L224.70-49.03Q224.70-48.51 224.17-47.67L224.17-47.67L224.17-47.67Q215.77-37.38 211.68-32.23L211.68-32.23L211.68-32.23Q199.29-16.59 198.03-9.76L198.03-9.76L198.03-9.76Q197.71-8.29 197.71-6.83L197.71-6.83L197.71-6.83Q197.71-2.10 201.60-2.10L201.60-2.10L201.60-2.10Q209.37-2.10 221.86-16.48L221.86-16.48L221.86-16.48Q222.91-17.54 223.65-17.69L223.65-17.69L223.65-17.69Q224.38-17.85 224.38-17.32L224.38-17.32L224.38-17.32Q224.38-16.80 223.75-16.06L223.75-16.06L223.75-16.06Q211.57-1.47 202.12 0.21L202.12 0.21L202.12 0.21Q201.60 0.32 200.65 0.32L200.65 0.32L200.65 0.32Q197.40 0.32 195.77-1.94L195.77-1.94L195.77-1.94Q194.14-4.20 194.14-6.83L194.14-6.83L194.14-6.83Q194.14-9.76 195.30-13.33L195.30-13.33L186.79-4.83L186.79-4.83Q181.02 0.53 177.71 0.53L177.71 0.53L177.71 0.53Q174.40 0.53 172.20-1.26L172.20-1.26L172.20-1.26Q169.57-3.25 169.57-6.83L169.57-6.83L169.57-6.83Q169.57-14.49 180.28-25.15L180.28-25.15L180.28-25.15Q190.99-35.80 199.92-35.80L199.92-35.80L199.92-35.80Q202.86-35.80 204.01-34.23L204.01-34.23L204.01-34.23Q204.43-33.70 204.96-31.81ZM173.98-5.56L173.98-5.56L173.98-5.56Q173.98-1.78 176.61-1.78L176.61-1.78L176.61-1.78Q181.12-1.78 191.62-14.17L191.62-14.17L191.62-14.17Q193.51-16.38 204.22-30.66L204.22-30.66L204.22-30.66Q203.49-31.92 201.70-31.92L201.70-31.92L201.70-31.92Q195.19-31.92 184.59-22.00L184.59-22.00L184.59-22.00Q173.98-12.07 173.98-5.56ZM321.19-19.84L321.19-19.84L321.19-19.84Q321.19-16.06 319.51-12.71L319.51-12.71L319.51-12.71Q315.94-5.14 305.86-0.10L305.86-0.10L305.86-0.10Q295.78 4.93 284.86 4.93L284.86 4.93L284.86 4.93Q268.27 4.93 262.29-6.40L262.29-6.40L262.29-6.40Q251.47 2.63 246.85 2.63L246.85 2.63L246.85 2.63Q246.01 2.63 245.38 2.31L245.38 2.31L245.38 2.31Q242.23 0.63 242.23-4.93L242.23-4.93L242.23-4.93Q242.23-10.50 246.85-18.59L246.85-18.59L246.85-18.59Q251.47-26.67 254.94-28.14L254.94-28.14L254.94-28.14Q256.51-28.66 257.35-28.66L257.35-28.66L257.35-28.66Q260.40-28.66 261.97-23.63L261.97-23.63L265.12-13.54L265.12-13.54Q268.17-16.80 273.42-23.94L273.42-23.94L282.76-36.54L282.76-36.54Q299.98-58.91 305.34-61.00L305.34-61.00L305.34-61.00Q307.23-61.74 309.22-61.74L309.22-61.74L309.22-61.74Q311.22-61.74 312.53-60.90L312.53-60.90L312.53-60.90Q313.84-60.06 313.84-58.80L313.84-58.80L313.84-58.80Q313.84-56.91 310.80-56.59L310.80-56.59L310.80-56.59Q307.65-54.81 298.78-46.15L298.78-46.15L298.78-46.15Q289.90-37.48 288.22-35.17L288.22-35.17L288.22-35.17Q276.46-18.79 266.49-9.97L266.49-9.97L266.49-9.97Q272.89 2.73 285.70 2.73L285.70 2.73L285.70 2.73Q293.47 2.73 301.14-2.15L301.14-2.15L301.14-2.15Q308.80-7.04 312.58-14.17L312.58-14.17L312.58-14.17Q314.26-17.22 314.26-21L314.26-21L314.26-21Q314.26-24.78 311.27-28.19L311.27-28.19L311.27-28.19Q308.28-31.61 303.76-33.18L303.76-33.18L303.76-33.18Q301.66-33.49 297.04-34.07L297.04-34.07L297.04-34.07Q292.42-34.65 292.42-36.02L292.42-36.02L292.42-36.02Q292.42-36.54 292.84-36.96L292.84-36.96L292.84-36.96Q294.10-38.43 296.10-38.43L296.10-38.43L296.10-38.43Q297.25-38.43 298.36-38.01L298.36-38.01L298.36-38.01Q299.46-37.59 300.09-37.38L300.09-37.38L300.09-37.38Q300.72-37.17 301.56-36.85L301.56-36.85L301.56-36.85Q303.87-36.64 305.55-36.64L305.55-36.64L305.55-36.64Q312.48-36.64 318.15-38.85L318.15-38.85L318.15-38.85Q325.39-41.68 327.39-47.35L327.39-47.35L327.39-47.35Q328.65-51.03 328.65-53.97L328.65-53.97L328.65-53.97Q328.65-61.21 321.61-64.78L321.61-64.78L321.61-64.78Q315.52-67.94 304.92-67.94L304.92-67.94L304.92-67.94Q288.22-67.94 274.99-61.63L274.99-61.63L274.99-61.63Q268.27-58.48 262.24-52.29L262.24-52.29L262.24-52.29Q256.20-46.09 256.20-41.68L256.20-41.68L256.20-41.68Q256.20-38.64 257.77-36.64L257.77-36.64L257.77-36.64Q258.40-35.80 259.98-34.55L259.98-34.55L259.98-34.55Q260.50-34.23 259.35-34.23L259.35-34.23L259.35-34.23Q252.84-35.70 252.84-42.95L252.84-42.95L252.84-42.95Q252.84-50.19 260.19-56.59L260.19-56.59L260.19-56.59Q265.65-61.32 272.47-64.26L272.47-64.26L272.47-64.26Q286.65-70.35 304.71-70.35L304.71-70.35L304.71-70.35Q317.63-70.35 325.29-66.57L325.29-66.57L325.29-66.57Q334.21-62.37 334.21-53.86L334.21-53.86L334.21-53.86Q334.21-50.50 332.85-47.04L332.85-47.04L332.85-47.04Q330.64-40.74 321.40-37.48L321.40-37.48L321.40-37.48Q314.47-35.07 306.49-34.96L306.49-34.96L306.49-34.96Q312.69-34.65 316.94-30.40L316.94-30.40L316.94-30.40Q321.19-26.14 321.19-19.84ZM254.10-23.73L254.10-23.73L254.10-23.73Q253.99-23.73 253.57-23.52L253.57-23.52L253.57-23.52Q245.80-12.29 245.80-5.46L245.80-5.46L245.80-5.46Q245.80-2.63 247.17-0.32L247.17-0.32L247.17-0.32Q247.48 0.21 248.22 0.21L248.22 0.21L248.22 0.21Q251.58 0.21 261.13-9.34L261.13-9.34L260.82-9.76L260.82-9.76Q256.62-23.73 254.10-23.73ZM361.20-31.39L361.20-31.39L362.67-31.71L362.67-31.71Q363.82-31.71 364.88-30.77L364.88-30.77L364.88-30.77Q365.92-29.82 365.92-29.29L365.92-29.29L365.92-29.29Q365.92-28.77 359.41-19.16L359.41-19.16L359.41-19.16Q352.90-9.55 352.90-5.77L352.90-5.77L352.90-5.77Q352.90-5.46 353.01-5.14L353.01-5.14L353.01-5.14Q353.53-2.73 355.32-2.73L355.32-2.73L355.32-2.73Q360.78-2.73 375.27-20.79L375.27-20.79L375.27-20.79Q375.58-21.21 376.00-21.21L376.00-21.21L376.00-21.21Q376.42-21.21 376.42-20.42L376.42-20.42L376.42-20.42Q376.42-19.63 375.48-18.38L375.48-18.38L375.48-18.38Q362.04-0.42 355.00-0.42L355.00-0.42L355.00-0.42Q354.06-0.42 353.22-0.73L353.22-0.73L353.22-0.73Q348.60-2.52 348.60-7.67L348.60-7.67L348.60-7.67Q348.60-9.45 349.02-11.23L349.02-11.23L342.51-4.93L342.51-4.93Q336.31 0.53 333.53 0.53L333.53 0.53L333.53 0.53Q330.75 0.53 328.23-1.26L328.23-1.26L328.23-1.26Q325.39-3.36 325.39-6.83L325.39-6.83L325.39-6.83Q325.39-14.49 336.10-25.15L336.10-25.15L336.10-25.15Q346.81-35.80 355.74-35.80L355.74-35.80L355.74-35.80Q359.20-35.80 360.36-33.39L360.36-33.39L360.36-33.39Q360.67-32.55 360.88-31.97L360.88-31.97L360.88-31.97Q361.09-31.39 361.20-31.39ZM329.80-5.56L329.80-5.56L329.80-5.56Q329.80-1.78 332.43-1.78L332.43-1.78L332.43-1.78Q338.52-1.78 349.02-15.12L349.02-15.12L360.15-30.45L360.15-30.45Q359.31-31.92 357.42-31.92L357.42-31.92L357.42-31.92Q351.01-31.92 340.41-22.00L340.41-22.00L340.41-22.00Q329.80-12.07 329.80-5.56ZM386.50-33.18L386.50-33.18L386.50-33.18Q389.34-33.18 389.34-30.97L389.34-30.97L389.34-30.97Q389.34-30.34 389.02-29.71L389.02-29.71L389.02-29.71Q379.57-16.59 377.68-9.87L377.68-9.87L377.68-9.87Q402.15-34.34 407.40-34.34L407.40-34.34L407.40-34.34Q407.92-34.44 408.34-34.44L408.34-34.44L408.34-34.44Q411.28-34.44 411.28-31.81L411.28-31.81L411.28-31.81Q411.28-31.29 411.07-30.77L411.07-30.77L411.07-30.77Q410.86-30.24 406.87-25.09L406.87-25.09L406.87-25.09Q402.25-19.63 399.05-14.59L399.05-14.59L399.05-14.59Q395.85-9.55 395.85-6.19L395.85-6.19L395.85-6.19Q395.85-2.83 397.32-2.83L397.32-2.83L397.32-2.83Q401.94-2.83 413.38-15.54L413.38-15.54L413.38-15.54Q413.59-15.75 414.12-16.48L414.12-16.48L414.12-16.48Q415.69-18.38 416.01-18.38L416.01-18.38L416.01-18.38Q416.32-18.38 416.32-17.32L416.32-17.32L416.32-17.32Q416.32-16.27 414.85-14.59L414.85-14.59L414.85-14.59Q401.83 0.21 396.37 0.21L396.37 0.21L396.37 0.21Q391.23 0.21 391.23-5.46L391.23-5.46L391.23-5.46Q391.23-11.13 395.43-18.48L395.43-18.48L402.15-29.40L402.15-29.40Q395.01-24.15 389.44-17.90L389.44-17.90L389.44-17.90Q383.88-11.65 379.31-5.77L379.31-5.77L379.31-5.77Q374.74 0.10 374.01 0.10L374.01 0.10L374.01 0.10Q372.43 0.10 371.54-1.21L371.54-1.21L371.54-1.21Q370.65-2.52 370.65-4.46L370.65-4.46L370.65-4.46Q370.65-6.40 372.01-9.66L372.01-9.66L372.01-9.66Q373.38-12.91 375.48-17.54L375.48-17.54L369.18-10.92L369.18-10.92Q366.87-8.61 366.29-8.61L366.29-8.61L366.29-8.61Q365.71-8.61 365.71-9.29L365.71-9.29L365.71-9.29Q365.71-9.97 366.55-10.81L366.55-10.81L366.55-10.81Q370.44-14.70 373.27-18.27L373.27-18.27L373.27-18.27Q376.00-21.84 384.51-31.92L384.51-31.92L384.51-31.92Q385.45-33.18 386.50-33.18ZM433.44 1.26L433.44 1.26L433.44 1.26Q425.14 1.26 419.37-11.87L419.37-11.87L419.37-11.87Q417.90-9.66 412.75 0.53L412.75 0.53L412.75 0.53Q408.97-0.94 408.97-3.46L408.97-3.46L408.97-3.46Q408.97-7.98 422.52-28.24L422.52-28.24L422.52-28.24Q436.06-48.51 441.10-52.08L441.10-52.08L441.10-52.08Q441.52-52.39 442.78-52.39L442.78-52.39L442.78-52.39Q446.04-52.39 446.04-50.71L446.04-50.71L446.04-50.71Q446.04-49.88 438.74-41.27L438.74-41.27L438.74-41.27Q431.44-32.66 430.60-30.87L430.60-30.87L430.60-30.87Q440.16-35.80 445.83-35.80L445.83-35.80L445.83-35.80Q449.08-35.80 451.39-33.18L451.39-33.18L451.39-33.18Q453.60-30.97 453.60-28.66L453.60-28.66L453.60-28.66Q453.60-28.35 453.60-28.04L453.60-28.04L453.60-28.04Q452.76-22.05 445.20-18.16L445.20-18.16L445.20-18.16Q439.11-14.91 433.86-14.91L433.86-14.91L433.86-14.91Q428.61-14.91 426.51-16.27L426.51-16.27L426.51-16.27Q425.88-16.38 425.51-15.96L425.51-15.96L425.51-15.96Q425.14-15.54 425.35-14.91L425.35-14.91L425.35-14.91Q428.29-1.89 435.12-1.89L435.12-1.89L435.12-1.89Q438.69-1.89 444.31-5.88L444.31-5.88L444.31-5.88Q449.92-9.87 456.01-17.11L456.01-17.11L456.01-17.11Q456.75-17.85 457.33-17.85L457.33-17.85L457.33-17.85Q457.90-17.85 457.90-17.27L457.90-17.27L457.90-17.27Q457.90-16.70 457.17-15.64L457.17-15.64L457.17-15.64Q451.50-8.71 446.46-4.72L446.46-4.72L446.46-4.72Q438.79 1.26 433.44 1.26ZM448.56-30.87L448.56-30.87L448.56-30.87Q448.56-31.71 447.61-32.55L447.61-32.55L447.61-32.55Q446.67-33.39 445.62-33.39L445.62-33.39L445.62-33.39Q439.95-33.39 432.02-28.66L432.02-28.66L432.02-28.66Q424.09-23.94 422.31-17.95L422.31-17.95L422.31-17.95Q423.25-17.95 427.35-17.64L427.35-17.64L427.35-17.64Q432.07-17.64 439.74-21.52L439.74-21.52L439.74-21.52Q448.56-25.93 448.56-30.87Z" fill="#f7c61d"></path></g></g><style>text {
  font-size: 64px;
  font-family: Arial Black;
  dominant-baseline: central;
  text-anchor: middle;
}</style></svg>